<?xml version="1.0" encoding="UTF-8"?>
<!DOCTYPE svg PUBLIC "-//W3C//DTD SVG 1.1//EN" "http://www.w3.org/Graphics/SVG/1.1/DTD/svg11.dtd">
<!-- Creator: CorelDRAW X7 -->
<svg xmlns="http://www.w3.org/2000/svg" xml:space="preserve" width="257px" height="257px" version="1.1" style="shape-rendering:geometricPrecision; text-rendering:geometricPrecision; image-rendering:optimizeQuality; fill-rule:evenodd; clip-rule:evenodd"
viewBox="0 0 57 57"
 xmlns:xlink="http://www.w3.org/1999/xlink">
 <defs>
  <style type="text/css">
   <![CDATA[
    .fil1 {fill:#FEFEFE;fill-rule:nonzero}
    .fil0 {fill:url(#id0)}
   ]]>
  </style>
  <linearGradient id="id0" gradientUnits="userSpaceOnUse" x1="-10.3952" y1="-33.1539" x2="79.9613" y2="110.026">
   <stop offset="0" style="stop-opacity:1; stop-color:#364A94"/>
   <stop offset="1" style="stop-opacity:1; stop-color:#7D7AB8"/>
  </linearGradient>
 </defs>
 <g id="Layer_x0020_1">
  <metadata id="CorelCorpID_0Corel-Layer"/>
  <path class="fil0" d="M46 57l-35 0c-6,0 -11,-5 -11,-11l0 -35c0,-6 5,-11 11,-11l35 0c6,0 11,5 11,11l0 35c0,6 -5,11 -11,11z"/>
  <path class="fil1" d="M30 34l-5 0 -9 -10 9 -10 5 0 -9 10 9 10zm-6 0l-4 0 -9 -10 9 -10 3 0 -8 10c3,3 6,7 9,10z"/>
  <path class="fil1" d="M28 23l5 0 9 10 -9 11 -5 0 10 -10 -10 -11zm7 0l3 0 10 11 -10 10 -3 0 9 -11c-3,-3 -6,-6 -9,-10z"/>
 </g>
</svg>
